<svg width="266" height="109" viewBox="0 0 266 109" fill="none" xmlns="http://www.w3.org/2000/svg">
<path d="M16.223 53.2292H21.4775C31.3085 53.2292 37.2071 47.3302 37.2071 38.1765V0.171875H29.9864V38.1765C29.9864 43.4314 27.3761 46.0419 21.4775 46.0419H16.223C10.3244 46.0419 7.44295 43.4314 7.71415 38.1765L9.03624 13.9363H2.49354C1.17144 28.989 0.527344 36.9899 0.527344 39.6004C0.527344 47.9743 6.93444 53.2292 16.2569 53.2292" fill="white"/>
<path d="M147.281 0.171875H140.06V39.4648H147.281V0.171875Z" fill="white"/>
<path d="M92.2271 0.171875H85.0063V39.4648H92.2271V0.171875Z" fill="white"/>
<path d="M117.11 7.35938H102.431L101.787 14.5806H117.11C121.822 14.5806 124.33 16.5469 124.33 21.1238V26.3786C124.33 30.9555 121.72 32.2777 117.11 32.2777H115.144C110.567 32.2777 107.686 30.9555 107.923 26.3786L108.33 17.8691H101.516L100.736 26.3786C99.9564 34.8882 105.991 39.465 115.144 39.465H117.11C126.297 39.465 131.517 34.8882 131.517 26.3786V21.1238C131.517 12.6143 125.619 7.35938 117.11 7.35938Z" fill="white"/>
<path d="M250.744 7.35938H220.335L219.691 14.5806H250.744C256.1 14.5806 257.964 16.5469 257.964 21.1238V26.3786C257.964 30.9555 255.998 32.2777 250.744 32.2777H232.404C226.505 32.2777 225.59 30.9555 225.861 26.3786L226.268 17.8691H219.454L218.674 26.3786C218.437 28.7518 218.64 30.6843 219.217 32.2777H213.42C208.843 32.2777 206.199 30.3113 206.199 25.7345V21.1577C206.199 12.6482 200.3 7.39328 191.791 7.39328H177.113L176.469 14.6145H191.791C196.504 14.6145 199.012 16.5808 199.012 21.1577V26.4125C199.012 30.3452 197.69 32.3116 195.08 32.3116C192.469 32.3116 188.029 31.1928 182.198 29.4977C182.401 28.5484 182.571 27.5313 182.638 26.4125L183.045 17.903H176.231L175.452 26.4125C175.045 30.9894 173.485 32.3116 169.553 32.3116H168.909C164.977 32.3116 163.01 30.9894 163.01 26.4125V13.9704H155.79V38.2106C155.79 44.1096 153.179 46.076 147.281 46.076H140.06V53.2972H147.281C156.671 53.2972 162.468 47.9067 162.976 38.2784C164.807 39.1938 167.011 39.5328 168.909 39.5328H169.553C173.892 39.5328 177.248 38.1428 179.486 35.4306C187.859 38.3462 193.283 39.5328 195.758 39.5328C198.232 39.5328 201.351 38.2106 203.216 36.0069C205.453 38.1767 208.809 39.5328 213.454 39.5328H250.811C259.998 39.5328 265.219 34.956 265.219 26.4464V21.1916C265.219 12.6821 259.964 7.42718 250.811 7.42718" fill="white"/>
<path d="M76.4977 36.8545V21.1238C76.4977 12.6143 70.5991 7.35938 62.0902 7.35938H47.4115L46.7674 14.5806H62.0902C66.8023 14.5806 69.3109 16.5469 69.3109 21.1238V32.2777H59.4799C54.9034 32.2777 52.666 30.9555 52.9372 26.3786L53.344 17.8691H46.5301L45.7504 26.3786C44.9707 34.8882 50.3269 39.4989 58.8697 39.4989C67.4125 39.4989 65.887 39.3294 69.3109 39.0921C69.0397 44.2791 66.3955 46.0421 60.8359 46.0421H45.7843V53.2633H60.8359C70.6669 53.2633 76.5655 47.3643 76.5655 36.8884" fill="white"/>
<path d="M7.71435 80.6221H0.493652V108.795H7.71435V80.6221Z" fill="white"/>
<path d="M43.7498 69.5026H36.5291C33.7832 69.5026 31.817 70.2824 29.8508 72.2487L29.1728 72.9268C26.7998 70.6214 23.3081 69.4688 18.8672 69.4688H0.527344V76.69H19.5113C24.0878 76.69 25.4099 78.6563 25.4099 82.589V101.846H32.6306V82.589C32.6306 80.3175 32.2916 78.3512 31.6475 76.69H43.1057C48.3602 76.69 50.3264 79.3005 50.3264 83.9112V108.796H57.5471V83.9112C57.5471 75.4017 52.9706 69.5026 43.7837 69.5026" fill="white"/>
<path d="M119.11 69.502H111.889V108.795H119.11V69.502Z" fill="white"/>
<path d="M73.2093 90.4544V88.488C73.2093 80.6227 77.7858 76.69 84.3624 76.69H102.058V69.4688H84.3624C73.2093 69.4688 66.0225 76.69 66.0225 88.4541V90.4205C66.0225 102.219 71.9211 108.762 83.7183 108.762H103.38V101.54H83.7183C76.4976 101.54 73.2432 98.2519 73.2432 90.3865" fill="white"/>
<path d="M137.314 69.875L139.653 76.8589L140.026 78.4184H140.195L140.602 76.8589L142.941 69.875H146.738V80.4187H144.501V71.8752H144.365L143.857 73.6382L141.619 80.4187H138.636L136.399 73.6382L135.89 71.8752H135.754V80.4187H133.517V69.875H137.314Z" fill="white"/>
<path d="M149.857 73.6045C150.569 72.9604 151.62 72.6553 152.976 72.6553C154.332 72.6553 155.349 72.9604 156.095 73.6045C156.807 74.2148 157.18 75.1301 157.18 76.3167V76.9609C157.18 78.1136 156.807 79.0289 156.095 79.6392C155.383 80.2833 154.332 80.5884 152.976 80.5884C151.62 80.5884 150.603 80.2833 149.857 79.6392C149.145 79.0289 148.772 78.1136 148.772 76.9609V76.3167C148.772 75.1301 149.145 74.2487 149.857 73.6045ZM154.468 78.3509C154.773 78.0458 154.942 77.605 154.942 76.9948V76.1811C154.942 75.6048 154.773 75.1641 154.468 74.8589C154.163 74.5538 153.654 74.4182 152.976 74.4182C152.298 74.4182 151.79 74.5538 151.484 74.8589C151.179 75.1641 151.01 75.6048 151.01 76.1811V76.9948C151.01 77.605 151.179 78.0458 151.484 78.3509C151.79 78.656 152.298 78.7916 152.976 78.7916C153.654 78.7916 154.129 78.656 154.468 78.3509Z" fill="white"/>
<path d="M159.281 69.5026H161.519V73.2658C161.79 73.0963 162.095 72.9268 162.502 72.8251C162.909 72.7234 163.315 72.6556 163.756 72.6556C166.163 72.6556 167.349 73.8083 167.349 76.1475V77.0968C167.349 79.4022 166.163 80.5887 163.756 80.5887C161.349 80.5887 162.603 80.5209 162.163 80.3514C161.722 80.1819 161.383 79.9785 161.18 79.6734L161.044 80.4192H159.281V69.4688V69.5026ZM163.315 78.8597C163.959 78.8597 164.4 78.7241 164.671 78.4529C164.943 78.1817 165.078 77.7409 165.078 77.1307V76.0458C165.078 75.4356 164.943 74.9948 164.671 74.7236C164.4 74.4524 163.926 74.3168 163.315 74.3168C162.705 74.3168 162.264 74.4524 161.959 74.6897C161.654 74.927 161.485 75.3 161.485 75.7407V77.4019C161.485 78.3512 162.095 78.8258 163.315 78.8258" fill="white"/>
<path d="M171.655 71.4012H169.417V69.4688H171.655V71.4012ZM171.655 80.4192H169.417V72.8251H171.655V80.4192Z" fill="white"/>
<path d="M176.435 69.502H174.197V80.4524H176.435V69.502Z" fill="white"/>
<path d="M179.52 73.5706C180.198 72.9604 181.215 72.6553 182.503 72.6553C183.791 72.6553 184.808 72.9604 185.486 73.5367C186.164 74.1131 186.503 75.0284 186.503 76.215V77.3677H180.706C180.706 77.8423 180.876 78.2153 181.181 78.4526C181.486 78.6899 181.96 78.7916 182.638 78.7916C183.825 78.7916 184.978 78.7238 186.096 78.5543L186.266 80.2155C184.944 80.4528 183.689 80.5884 182.571 80.5884C181.452 80.5884 180.198 80.2833 179.52 79.707C178.842 79.1306 178.469 78.2492 178.469 77.1304V76.2828C178.469 75.0963 178.808 74.2148 179.52 73.6045M184.3 76.0794V75.9099C184.3 75.3675 184.164 74.9606 183.893 74.7233C183.622 74.486 183.147 74.3504 182.537 74.3504C181.927 74.3504 181.418 74.486 181.147 74.7572C180.876 75.0284 180.74 75.4692 180.74 76.0794H184.333H184.3Z" fill="white"/>
<path d="M140.026 84.0462C140.704 84.2157 141.28 84.4191 141.823 84.6903L141.213 86.2838C140.196 85.843 139.246 85.6396 138.297 85.6396C137.348 85.6396 136.602 85.8769 136.128 86.3516C135.653 86.8262 135.45 87.6059 135.45 88.6569V89.8774C135.45 90.8945 135.687 91.6742 136.128 92.1489C136.568 92.6235 137.28 92.8947 138.263 92.8947C139.246 92.8947 139.28 92.8269 139.89 92.6913C140.501 92.5557 141.077 92.3862 141.653 92.1489L142.196 93.7423C141.552 94.0474 140.874 94.2847 140.162 94.4542C139.416 94.6237 138.738 94.7255 138.094 94.7255C136.5 94.7255 135.28 94.3186 134.466 93.4711C133.653 92.6235 133.246 91.4369 133.246 89.8096V88.7586C133.246 87.1652 133.653 85.9447 134.5 85.0972C135.348 84.2496 136.568 83.8428 138.195 83.8428C139.823 83.8428 139.416 83.9106 140.06 84.0801" fill="white"/>
<path d="M144.365 87.7081C145.077 87.0639 146.128 86.7588 147.484 86.7588C148.84 86.7588 149.857 87.0639 150.603 87.7081C151.315 88.3183 151.687 89.2337 151.687 90.4202V91.0644C151.687 92.2171 151.315 93.1324 150.603 93.7427C149.891 94.3868 148.84 94.692 147.484 94.692C146.128 94.692 145.111 94.3868 144.365 93.7427C143.653 93.1324 143.28 92.2171 143.28 91.0644V90.4202C143.28 89.2337 143.653 88.3522 144.365 87.7081ZM148.942 92.4544C149.247 92.1493 149.416 91.7085 149.416 91.0983V90.2846C149.416 89.7083 149.247 89.2676 148.942 88.9624C148.636 88.6573 148.128 88.5217 147.45 88.5217C146.772 88.5217 146.263 88.6573 145.958 88.9624C145.653 89.2676 145.484 89.7083 145.484 90.2846V91.0983C145.484 91.7085 145.653 92.1493 145.958 92.4544C146.263 92.7595 146.772 92.8951 147.45 92.8951C148.128 92.8951 148.603 92.7595 148.942 92.4544Z" fill="white"/>
<path d="M153.789 86.928H155.552L155.688 87.64C155.891 87.3688 156.196 87.1653 156.603 86.9958C157.01 86.8263 157.484 86.7585 157.993 86.7585C159.078 86.7585 159.857 87.0975 160.298 87.7417C160.569 87.4027 160.942 87.1653 161.417 86.9958C161.891 86.8263 162.434 86.7246 163.078 86.7246C164.23 86.7246 165.078 86.9958 165.62 87.5383C166.163 88.0807 166.468 88.9622 166.468 90.1488V94.4883H164.23V90.1149C164.23 89.5046 164.129 89.0639 163.891 88.7927C163.654 88.5553 163.281 88.4197 162.773 88.4197C161.756 88.4197 161.247 88.8944 161.247 89.8097V94.4544H159.01V90.0809C159.01 89.4707 158.908 89.03 158.671 88.7588C158.434 88.5214 158.061 88.3858 157.552 88.3858C156.501 88.3858 155.993 88.8605 155.993 89.7758V94.4205H153.755V86.8263L153.789 86.928Z" fill="white"/>
<path d="M168.841 86.928H170.604L170.739 87.64C170.943 87.3688 171.248 87.1653 171.655 86.9958C172.062 86.8263 172.536 86.7585 173.045 86.7585C174.129 86.7585 174.909 87.0975 175.35 87.7417C175.621 87.4027 175.994 87.1653 176.469 86.9958C176.943 86.8263 177.486 86.7246 178.13 86.7246C179.282 86.7246 180.13 86.9958 180.672 87.5383C181.215 88.0807 181.52 88.9622 181.52 90.1488V94.4883H179.282V90.1149C179.282 89.5046 179.181 89.0639 178.943 88.7927C178.706 88.5553 178.333 88.4197 177.825 88.4197C176.808 88.4197 176.299 88.8944 176.299 89.8097V94.4544H174.062V90.0809C174.062 89.4707 173.96 89.03 173.723 88.7588C173.485 88.5214 173.112 88.3858 172.604 88.3858C171.553 88.3858 171.045 88.8605 171.045 89.7758V94.4205H168.807V86.8263L168.841 86.928Z" fill="white"/>
<path d="M189.723 94.5219L189.588 93.776C189.384 94.0811 189.045 94.2846 188.605 94.4541C188.164 94.6236 187.655 94.6914 187.113 94.6914C185.96 94.6914 185.113 94.3863 184.57 93.8099C184.028 93.2336 183.757 92.3521 183.757 91.1994V86.9277H185.994V91.3011C185.994 91.9114 186.096 92.3182 186.333 92.5894C186.571 92.8607 186.977 92.9963 187.554 92.9963C188.706 92.9963 189.283 92.5216 189.283 91.5724V86.9616H191.52V94.5558H189.757L189.723 94.5219Z" fill="white"/>
<path d="M195.622 86.9283L195.757 87.6741C195.995 87.369 196.3 87.1656 196.741 86.9961C197.181 86.8266 197.656 86.7588 198.232 86.7588C199.385 86.7588 200.232 87.0639 200.775 87.6403C201.317 88.2166 201.588 89.0981 201.588 90.2507V94.5224H199.351V90.1829C199.351 89.5727 199.249 89.132 199.012 88.8607C198.775 88.5895 198.368 88.4539 197.791 88.4539C196.639 88.4539 196.063 88.9285 196.063 89.8778V94.4885H193.825V86.8944H195.588L195.622 86.9283Z" fill="white"/>
<path d="M206.165 85.5047H203.928V83.5723H206.165V85.5047ZM206.165 94.5227H203.928V86.9286H206.165V94.5227Z" fill="white"/>
<path d="M215.148 87.1659L214.809 88.7932C213.996 88.6237 213.182 88.5559 212.436 88.5559C211.69 88.5559 211.25 88.6915 210.911 88.9966C210.606 89.3017 210.436 89.7425 210.436 90.3527V91.1325C210.436 91.7427 210.606 92.1835 210.911 92.4886C211.216 92.7937 211.724 92.9293 212.436 92.9293C213.148 92.9293 214.335 92.8276 215.216 92.6242L215.453 94.3193C214.979 94.4549 214.436 94.5227 213.86 94.6244C213.284 94.6922 212.741 94.7261 212.267 94.7261C210.945 94.7261 209.962 94.421 209.25 93.7769C208.538 93.1666 208.199 92.2513 208.199 91.0986V90.4544C208.199 89.2678 208.538 88.3864 209.25 87.7422C209.962 87.0981 210.945 86.793 212.267 86.793C213.589 86.793 214.03 86.9286 215.114 87.1998" fill="white"/>
<path d="M222.234 88.5556C221.996 88.3861 221.59 88.2844 221.047 88.2844C220.505 88.2844 220.064 88.2844 219.488 88.3522C218.878 88.3861 218.369 88.4539 217.928 88.5556L217.759 87.1317C218.267 87.03 218.844 86.9622 219.488 86.8605C220.132 86.7927 220.708 86.7588 221.217 86.7588C222.437 86.7588 223.352 86.9622 223.929 87.4368C224.505 87.9115 224.81 88.5895 224.81 89.5388V94.5564H223.081L222.912 93.6749C222.471 94.3529 221.556 94.692 220.132 94.692C218.708 94.692 218.335 94.4885 217.861 94.0817C217.352 93.6749 217.115 93.0307 217.115 92.1832C217.115 91.3356 217.386 90.7254 217.894 90.3185C218.403 89.9117 219.284 89.7422 220.505 89.7422H222.573V89.5388C222.573 89.0641 222.471 88.759 222.234 88.5895M219.657 91.2339C219.454 91.4034 219.318 91.7085 219.318 92.1154C219.318 92.5222 219.42 92.7934 219.657 92.9629C219.895 93.1324 220.234 93.2342 220.742 93.2342C221.251 93.2342 221.759 93.1324 222.098 92.8951C222.437 92.6578 222.607 92.3188 222.607 91.912V91.0305H220.776C220.267 91.0305 219.895 91.1322 219.691 91.3017" fill="white"/>
<path d="M227.658 86.9287V84.8945H229.895V86.9287H231.759V88.556H229.895V91.9462C229.895 92.2853 229.963 92.5226 230.132 92.6921C230.302 92.8616 230.505 92.9294 230.81 92.9294H231.759L231.59 94.5567H230.573C228.641 94.5567 227.691 93.6414 227.691 91.8445V88.5899H226.335V86.9626H227.691L227.658 86.9287Z" fill="white"/>
<path d="M236.031 85.5047H233.793V83.5723H236.031V85.5047ZM236.031 94.5227H233.793V86.9286H236.031V94.5227Z" fill="white"/>
<path d="M239.183 87.7081C239.895 87.0639 240.946 86.7588 242.302 86.7588C243.658 86.7588 244.675 87.0639 245.421 87.7081C246.133 88.3183 246.506 89.2337 246.506 90.4202V91.0644C246.506 92.2171 246.133 93.1324 245.421 93.7427C244.709 94.3868 243.658 94.692 242.302 94.692C240.946 94.692 239.929 94.3868 239.183 93.7427C238.472 93.1324 238.099 92.2171 238.099 91.0644V90.4202C238.099 89.2337 238.472 88.3522 239.183 87.7081ZM243.794 92.4544C244.099 92.1493 244.268 91.7085 244.268 91.0983V90.2846C244.268 89.7083 244.099 89.2676 243.794 88.9624C243.489 88.6573 242.98 88.5217 242.302 88.5217C241.624 88.5217 241.116 88.6573 240.811 88.9624C240.506 89.2676 240.336 89.7083 240.336 90.2846V91.0983C240.336 91.7085 240.506 92.1493 240.811 92.4544C241.116 92.7595 241.624 92.8951 242.302 92.8951C242.98 92.8951 243.455 92.7595 243.794 92.4544Z" fill="white"/>
<path d="M250.37 86.9283L250.506 87.6741C250.743 87.369 251.048 87.1656 251.489 86.9961C251.93 86.8266 252.404 86.7588 252.981 86.7588C254.133 86.7588 254.981 87.0639 255.523 87.6403C256.066 88.2166 256.337 89.0981 256.337 90.2507V94.5224H254.099V90.1829C254.099 89.5727 253.998 89.132 253.76 88.8607C253.523 88.5895 253.116 88.4539 252.54 88.4539C251.387 88.4539 250.811 88.9285 250.811 89.8778V94.4885H248.574V86.8944H250.337L250.37 86.9283Z" fill="white"/>
<path d="M259.896 94.5905C259.252 94.5227 258.676 94.421 258.167 94.2854L258.473 92.7598C259.693 92.9971 260.778 93.0988 261.659 93.0988C262.541 93.0988 262.642 93.031 262.88 92.9293C263.117 92.8276 263.219 92.6242 263.219 92.3191C263.219 92.0139 263.185 92.0478 263.083 91.98C262.981 91.9122 262.812 91.8105 262.574 91.7766C262.337 91.7088 261.93 91.641 261.354 91.5393C260.507 91.4037 259.829 91.2342 259.388 91.0647C258.947 90.8952 258.608 90.6578 258.439 90.3866C258.269 90.1154 258.167 89.7425 258.167 89.2678C258.167 87.6066 259.354 86.793 261.727 86.793C264.1 86.793 263.863 86.9286 265.151 87.2337L264.812 88.7254C263.659 88.522 262.676 88.4203 261.896 88.4203C261.117 88.4203 260.947 88.4881 260.71 88.5898C260.507 88.6915 260.371 88.861 260.371 89.1322C260.371 89.4035 260.405 89.4374 260.507 89.5391C260.574 89.6408 260.744 89.7086 260.981 89.7764C261.218 89.8442 261.591 89.912 262.134 89.9798C263.015 90.1154 263.693 90.251 264.168 90.4544C264.642 90.6578 264.947 90.8613 265.151 91.1325C265.354 91.4037 265.422 91.8105 265.422 92.2852C265.422 93.1327 265.117 93.743 264.541 94.1498C263.964 94.5566 263.049 94.76 261.795 94.76C260.54 94.76 260.507 94.7261 259.862 94.6583" fill="white"/>
<path d="M134.297 101.812C135.009 101.167 136.06 100.862 137.416 100.862C138.772 100.862 139.789 101.167 140.534 101.812C141.246 102.422 141.619 103.337 141.619 104.524V105.168C141.619 106.321 141.246 107.236 140.534 107.846C139.822 108.49 138.772 108.795 137.416 108.795C136.06 108.795 135.043 108.49 134.297 107.846C133.585 107.236 133.212 106.321 133.212 105.168V104.524C133.212 103.337 133.585 102.456 134.297 101.812ZM138.873 106.558C139.178 106.253 139.348 105.812 139.348 105.202V104.388C139.348 103.812 139.178 103.371 138.873 103.066C138.568 102.761 138.06 102.625 137.382 102.625C136.704 102.625 136.195 102.761 135.89 103.066C135.585 103.371 135.415 103.812 135.415 104.388V105.202C135.415 105.812 135.585 106.253 135.89 106.558C136.195 106.863 136.704 106.999 137.382 106.999C138.06 106.999 138.534 106.863 138.873 106.558Z" fill="white"/>
<path d="M144.975 98.4546C145.518 97.946 146.331 97.6748 147.45 97.6748H148.772L148.603 99.3699H147.755C147.247 99.3699 146.908 99.4716 146.704 99.6751C146.501 99.8785 146.399 100.217 146.399 100.726V101.031H148.331V102.658H146.399V108.625H144.162V102.658H142.941V101.031H144.162V100.794C144.162 99.7429 144.433 98.9631 144.975 98.4546Z" fill="white"/>
<path d="M156.569 98.082H154.332V108.626H156.569V98.082Z" fill="white"/>
<path d="M158.942 101.032H160.705L160.874 102.015C161.349 101.235 162.027 100.862 162.976 100.862H163.993L163.824 102.727H162.807C162.298 102.727 161.891 102.863 161.586 103.168C161.281 103.473 161.146 103.88 161.146 104.388V108.626H158.908V101.032H158.942Z" fill="white"/>
<path d="M170.129 102.659C169.892 102.49 169.485 102.388 168.943 102.388C168.4 102.388 167.96 102.388 167.383 102.456C166.773 102.49 166.265 102.557 165.824 102.659L165.654 101.235C166.163 101.134 166.739 101.066 167.383 100.964C168.027 100.896 168.604 100.862 169.112 100.862C170.333 100.862 171.248 101.066 171.824 101.54C172.4 102.015 172.706 102.693 172.706 103.642V108.66H170.977L170.807 107.778C170.366 108.456 169.451 108.795 168.027 108.795C166.604 108.795 166.231 108.592 165.756 108.185C165.248 107.778 165.01 107.134 165.01 106.287C165.01 105.439 165.281 104.829 165.79 104.422C166.298 104.015 167.18 103.846 168.4 103.846H170.468V103.642C170.468 103.168 170.366 102.863 170.129 102.693M167.519 105.337C167.315 105.507 167.18 105.812 167.18 106.219C167.18 106.626 167.282 106.897 167.519 107.066C167.756 107.236 168.095 107.338 168.604 107.338C169.112 107.338 169.621 107.236 169.96 106.999C170.299 106.761 170.468 106.422 170.468 106.015V105.134H168.638C168.129 105.134 167.756 105.236 167.553 105.405" fill="white"/>
<path d="M176.774 101.032L176.909 101.778C177.147 101.473 177.452 101.269 177.892 101.1C178.333 100.93 178.808 100.862 179.384 100.862C180.537 100.862 181.384 101.167 181.927 101.744C182.469 102.32 182.74 103.202 182.74 104.354V108.626H180.503V104.286C180.503 103.676 180.401 103.235 180.164 102.964C179.926 102.693 179.52 102.557 178.943 102.557C177.791 102.557 177.214 103.032 177.214 103.981V108.592H174.977V100.998H176.74L176.774 101.032Z" fill="white"/>
<path d="M247.116 21.2247C243.082 19.6991 238.844 19.1906 234.878 19.733V26.6491C239.624 26.005 244.709 26.8525 249.455 29.124V24.5811C249.455 23.0894 248.54 21.7333 247.116 21.2247Z" fill="white"/>
<path d="M116.736 56.3478C112.702 54.8222 108.465 54.3136 104.499 54.8561V61.7722C109.245 61.128 114.33 61.9756 119.076 64.247V59.7041C119.076 58.2124 118.16 56.8563 116.736 56.3478Z" fill="white"/>
</svg>
