<svg width="1136" height="466" viewBox="0 0 1136 466" fill="none" xmlns="http://www.w3.org/2000/svg">
    <g clip-path="url(#clip0_253_401)">
        <path d="M67.4168 227.644H89.8832C132.019 227.644 157.3 202.35 157.3 163.01V0H126.406V163.01C126.406 185.488 115.165 196.735 89.8832 196.735H67.4168C42.1355 196.735 29.7884 185.488 30.8936 163.01L36.5232 59.0361H8.42709C2.79752 123.653 0 157.948 0 169.178C0 205.149 27.5262 227.627 67.4168 227.627" fill="#010101"/>
        <path d="M629.218 0H598.324V168.625H629.218V0Z" fill="#010101"/>
        <path d="M393.259 0H362.365V168.625H393.259V0Z" fill="#010101"/>
        <path d="M499.997 30.9089H437.07L434.272 61.8178H499.997C520.218 61.8178 530.89 70.2491 530.89 89.9278V112.405C530.89 132.084 519.648 137.699 499.997 137.699H491.569C471.901 137.699 459.553 132.067 460.676 112.405L462.351 75.8641H433.132L429.765 112.405C426.398 148.929 452.232 168.608 491.569 168.608H499.997C539.317 168.608 561.801 148.929 561.801 112.405V89.9278C561.801 53.3865 536.52 30.9089 499.997 30.9089Z" fill="#010101"/>
        <path d="M1073.04 30.9089H942.695L939.897 61.8177H1073.04C1096.07 61.8177 1103.93 70.249 1103.93 89.9277V112.405C1103.93 132.084 1095.5 137.699 1073.04 137.699H994.38C969.099 137.699 965.161 132.067 966.284 112.405L967.959 75.8641H938.74L935.373 112.405C934.354 122.512 935.183 130.806 937.773 137.699H912.906C893.237 137.699 882.013 129.268 882.013 109.589V89.9104C882.013 53.3692 856.731 30.8916 820.208 30.8916H757.281L754.484 61.8005H820.208C840.43 61.8005 851.102 70.2317 851.102 89.9104V112.388C851.102 129.251 845.472 137.682 834.248 137.682C823.904 137.682 804.01 132.913 778.971 125.571C779.886 121.459 780.508 117.07 780.87 112.405L782.545 75.8641H753.327L749.96 112.405C748.284 132.084 741.532 137.699 724.678 137.699H721.881C705.027 137.699 696.599 132.067 696.599 112.405V59.0188H665.706V162.993C665.706 188.287 654.464 196.718 629.183 196.718H598.289V227.627H629.183C669.453 227.627 694.32 204.493 696.427 163.2C704.284 167.139 713.799 168.608 721.881 168.608H724.678C743.311 168.608 757.627 162.596 767.211 151.054C803.112 163.563 826.39 168.608 837.045 168.608C849.047 168.608 861.031 162.907 868.975 153.542C878.594 162.907 892.892 168.608 912.889 168.608H1073C1112.32 168.608 1134.81 148.929 1134.81 112.405V89.9277C1134.81 53.3865 1112.34 30.9089 1073 30.9089" fill="#010101"/>
        <path d="M325.842 157.378V89.9278C325.842 53.3865 300.56 30.9089 264.037 30.9089H201.11L198.313 61.8178H264.037C284.259 61.8178 294.931 70.2491 294.931 89.9278V137.716H252.795C233.126 137.716 223.577 132.084 224.699 112.423L226.374 75.8814H197.156L193.788 112.423C190.421 148.964 213.457 168.643 249.981 168.643C265.004 168.643 280.045 167.986 294.81 166.915C293.67 189.185 282.325 196.735 258.408 196.735H193.806V227.644H258.408C300.543 227.644 325.824 202.35 325.824 157.378" fill="#010101"/>
        <path d="M30.8936 345.129H0V465.983H30.8936V345.129Z" fill="#010101"/>
        <path d="M508.441 255.374V274.88C488.133 265.101 466.271 261.473 445.963 264.255V234.572C462.99 232.257 481.087 234.417 498.46 240.93C504.504 243.194 508.441 248.981 508.441 255.357V255.374Z" fill="#0095DA"/>
        <path d="M1067.43 104.717V124.206C1047.12 114.427 1025.26 110.799 1004.95 113.58V83.9153C1021.98 81.6002 1040.07 83.7598 1057.44 90.2733C1063.49 92.5194 1067.43 98.3072 1067.43 104.7V104.717Z" fill="#0095DA"/>
        <path d="M185.396 297.358H154.503C142.708 297.358 134.281 300.727 125.854 309.158L122.884 312.13C112.747 302.264 97.7232 297.34 78.6759 297.34H0V328.249H81.4562C101.125 328.249 106.737 336.68 106.737 353.543V436.162H137.631V353.543C137.631 343.85 136.163 335.419 133.366 328.249H182.564C205.031 328.249 213.458 339.497 213.458 359.158V465.948H244.351V359.158C244.351 322.617 224.682 297.323 185.362 297.323" fill="#010101"/>
        <path d="M508.423 297.357H477.529V465.983H508.423V297.357Z" fill="#010101"/>
        <path d="M311.803 387.285V378.854C311.803 345.129 331.472 328.266 359.568 328.266H435.412V297.357H359.568C311.803 297.357 280.909 328.266 280.909 378.854V387.285C280.909 437.873 306.19 465.983 356.753 465.983H441.024V435.074H356.753C325.859 435.074 311.82 421.027 311.82 387.285" fill="#010101"/>
        <path d="M586.65 299.051L596.614 328.923L598.289 335.644H598.997L600.741 328.923L610.705 299.051H626.955V344.265H617.492V307.655H616.801L614.694 315.101L605.093 344.265H592.262L582.661 315.101L580.572 307.655H579.864V344.265H570.4V299.051H586.65Z" fill="#010101"/>
        <path d="M640.442 314.997C643.55 312.302 647.988 310.955 653.79 310.955C659.593 310.955 664.031 312.302 667.105 314.997C670.178 317.675 671.733 321.563 671.733 326.608V329.407C671.733 334.4 670.196 338.253 667.105 340.948C664.013 343.643 659.593 344.991 653.79 344.991C647.988 344.991 643.55 343.643 640.442 340.948C637.333 338.27 635.779 334.417 635.779 329.407V326.608C635.779 321.563 637.333 317.693 640.442 314.997ZM660.145 335.436C661.527 334.175 662.218 332.257 662.218 329.683V326.245C662.218 323.722 661.527 321.822 660.145 320.561C658.764 319.299 656.64 318.66 653.808 318.66C650.976 318.66 648.783 319.299 647.384 320.561C646.002 321.822 645.312 323.722 645.312 326.245V329.683C645.312 332.257 646.002 334.175 647.384 335.436C648.765 336.698 650.889 337.337 653.808 337.337C656.726 337.337 658.764 336.698 660.145 335.436Z" fill="#010101"/>
        <path d="M680.781 297.358H690.314V313.477C691.436 312.682 692.835 312.06 694.51 311.611C696.185 311.162 697.981 310.937 699.898 310.937C710.172 310.937 715.319 315.913 715.319 325.865V329.994C715.319 339.946 710.172 344.922 699.898 344.922C697.29 344.922 695.011 344.593 693.111 343.937C691.194 343.28 689.778 342.33 688.846 341.069L688.293 344.231H680.798V297.323L680.781 297.358ZM698.171 337.613C700.934 337.613 702.885 337.061 704.059 335.938C705.234 334.814 705.803 332.949 705.803 330.322V325.623C705.803 323.014 705.216 321.131 704.059 320.008C702.885 318.885 700.916 318.332 698.171 318.332C695.598 318.332 693.646 318.85 692.317 319.87C690.987 320.889 690.314 322.409 690.314 324.431V331.515C690.314 335.592 692.921 337.613 698.171 337.613Z" fill="#010101"/>
        <path d="M733.917 305.633H724.385V297.357H733.917V305.633ZM733.917 344.265H724.385V311.663H733.917V344.265Z" fill="#010101"/>
        <path d="M754.38 297.357H744.848V344.265H754.38V297.357Z" fill="#010101"/>
        <path d="M767.66 314.894C770.631 312.285 774.879 310.955 780.456 310.955C786.034 310.955 790.369 312.233 793.252 314.807C796.119 317.382 797.552 321.217 797.552 326.314V331.29H772.737C772.824 333.398 773.532 334.935 774.844 335.886C776.157 336.836 778.229 337.337 781.078 337.337C786.207 337.337 791.163 336.991 795.929 336.283L796.637 343.436C790.939 344.455 785.654 344.973 780.802 344.973C775.017 344.973 770.631 343.695 767.66 341.155C764.69 338.615 763.205 334.901 763.205 330.046V326.4C763.205 321.355 764.69 317.52 767.66 314.894ZM788.072 325.623V324.915C788.072 322.565 787.485 320.872 786.293 319.801C785.102 318.729 783.15 318.194 780.439 318.194C777.728 318.194 775.638 318.764 774.481 319.904C773.307 321.044 772.737 322.945 772.737 325.623H788.089H788.072Z" fill="#010101"/>
        <path d="M598.289 359.866C601.138 360.54 603.677 361.439 605.922 362.579L603.262 369.386C598.962 367.572 594.783 366.639 590.725 366.639C586.667 366.639 583.438 367.693 581.487 369.766C579.518 371.839 578.551 375.122 578.551 379.614V384.815C578.551 389.22 579.501 392.451 581.417 394.559C583.334 396.667 586.374 397.721 590.535 397.721C592.59 397.721 594.904 397.444 597.477 396.909C600.05 396.373 602.571 395.596 605.041 394.559L607.355 401.349C604.644 402.662 601.725 403.681 598.6 404.39C595.457 405.115 592.521 405.478 589.775 405.478C582.903 405.478 577.739 403.699 574.251 400.122C570.763 396.546 569.019 391.328 569.019 384.452V379.891C569.019 373.014 570.814 367.797 574.406 364.22C578.016 360.644 583.282 358.864 590.242 358.864C592.763 358.864 595.457 359.21 598.306 359.884" fill="#010101"/>
        <path d="M616.835 375.502C619.944 372.807 624.382 371.459 630.184 371.459C635.986 371.459 640.424 372.807 643.498 375.502C646.572 378.18 648.126 382.067 648.126 387.112V389.911C648.126 394.904 646.589 398.757 643.498 401.452C640.407 404.148 635.986 405.495 630.184 405.495C624.382 405.495 619.944 404.148 616.835 401.452C613.727 398.774 612.173 394.922 612.173 389.911V387.112C612.173 382.067 613.727 378.197 616.835 375.502ZM636.522 395.941C637.903 394.68 638.594 392.762 638.594 390.188V386.75C638.594 384.227 637.903 382.327 636.522 381.065C635.14 379.804 633.016 379.165 630.184 379.165C627.352 379.165 625.159 379.804 623.76 381.065C622.379 382.327 621.688 384.227 621.688 386.75V390.188C621.688 392.762 622.379 394.68 623.76 395.941C625.142 397.202 627.266 397.841 630.184 397.841C633.102 397.841 635.14 397.202 636.522 395.941Z" fill="#010101"/>
        <path d="M657.227 372.168H664.721L665.274 375.26C666.154 374.085 667.484 373.17 669.246 372.479C670.99 371.805 672.976 371.459 675.169 371.459C679.883 371.459 683.199 372.876 685.115 375.727C686.29 374.31 687.878 373.256 689.882 372.53C691.885 371.805 694.268 371.442 697.031 371.442C701.935 371.442 705.579 372.599 707.962 374.915C710.345 377.23 711.536 380.962 711.536 386.093V404.752H702.004V386.041C702.004 383.363 701.521 381.514 700.536 380.426C699.552 379.355 697.963 378.819 695.77 378.819C691.367 378.819 689.174 380.823 689.174 384.849V404.77H679.641V386.058C679.641 383.38 679.158 381.532 678.173 380.443C677.189 379.372 675.6 378.837 673.407 378.837C668.969 378.837 666.759 380.841 666.759 384.866V404.787H657.227V372.185V372.168Z" fill="#010101"/>
        <path d="M721.777 372.168H729.272L729.824 375.26C730.705 374.085 732.035 373.17 733.796 372.479C735.54 371.805 737.526 371.459 739.719 371.459C744.433 371.459 747.749 372.876 749.666 375.727C750.84 374.31 752.429 373.256 754.432 372.53C756.435 371.805 758.818 371.442 761.581 371.442C766.486 371.442 770.129 372.599 772.512 374.915C774.895 377.23 776.087 380.962 776.087 386.093V404.752H766.555V386.041C766.555 383.363 766.071 381.514 765.07 380.426C764.085 379.355 762.496 378.819 760.303 378.819C755.9 378.819 753.707 380.823 753.707 384.849V404.77H744.174V386.058C744.174 383.38 743.691 381.532 742.707 380.443C741.722 379.372 740.134 378.837 737.94 378.837C733.502 378.837 731.292 380.841 731.292 384.866V404.787H721.76V372.185L721.777 372.168Z" fill="#010101"/>
        <path d="M811.35 404.787L810.797 401.625C809.865 402.887 808.449 403.837 806.601 404.493C804.719 405.15 802.577 405.478 800.142 405.478C795.186 405.478 791.525 404.234 789.177 401.729C786.811 399.224 785.637 395.509 785.637 390.551V372.185H795.169V390.896C795.169 393.47 795.67 395.319 796.671 396.425C797.673 397.548 799.417 398.101 801.904 398.101C806.86 398.101 809.329 396.062 809.329 392.002V372.15H818.862V404.752H811.35V404.787Z" fill="#010101"/>
        <path d="M836.579 372.168L837.132 375.398C838.116 374.137 839.532 373.17 841.363 372.496C843.21 371.822 845.352 371.477 847.787 371.477C852.743 371.477 856.404 372.721 858.752 375.226C861.118 377.731 862.292 381.445 862.292 386.404V404.77H852.76V386.11C852.76 383.501 852.259 381.618 851.258 380.513C850.239 379.39 848.512 378.837 846.025 378.837C841.069 378.837 838.6 380.875 838.6 384.935V404.787H829.067V372.185H836.579V372.168Z" fill="#010101"/>
        <path d="M881.788 366.138H872.256V357.862H881.788V366.138ZM881.788 404.787H872.256V372.185H881.788V404.787Z" fill="#010101"/>
        <path d="M920.332 373.222L918.933 380.167C915.376 379.459 911.974 379.113 908.693 379.113C905.757 379.113 903.598 379.752 902.2 381.048C900.818 382.327 900.127 384.262 900.127 386.836V390.205C900.127 392.779 900.818 394.697 902.2 395.958C903.581 397.219 905.74 397.859 908.693 397.859C912.803 397.859 916.809 397.41 920.677 396.528L921.73 403.75C919.675 404.269 917.396 404.683 914.909 405.012C912.405 405.34 910.126 405.495 908.071 405.495C902.459 405.495 898.159 404.148 895.137 401.452C892.132 398.774 890.612 394.922 890.612 389.911V387.112C890.612 382.067 892.115 378.197 895.137 375.502C898.141 372.807 902.459 371.459 908.071 371.459C911.576 371.459 915.652 372.047 920.332 373.204" fill="#010101"/>
        <path d="M950.811 379.148C949.826 378.422 948.117 378.059 945.699 378.059C943.783 378.059 941.538 378.163 938.982 378.37C936.409 378.577 934.164 378.854 932.264 379.182L931.556 373.014C933.749 372.6 936.219 372.237 938.947 371.926C941.693 371.615 944.18 371.477 946.407 371.477C951.691 371.477 955.56 372.427 958.046 374.31C960.516 376.211 961.759 379.217 961.759 383.329V404.856H954.403L953.695 401.072C951.778 404.009 947.806 405.495 941.779 405.495C937.376 405.495 934.129 404.614 932.005 402.835C929.881 401.055 928.811 398.343 928.811 394.697C928.811 391.052 929.95 388.391 932.213 386.715C934.475 385.039 938.205 384.193 943.385 384.193H952.296V383.277C952.296 381.273 951.812 379.908 950.828 379.182M939.673 390.568C938.74 391.293 938.274 392.537 938.274 394.317C938.274 396.097 938.757 397.202 939.707 397.928C940.657 398.654 942.211 399.016 944.37 399.016C946.804 399.016 948.721 398.515 950.155 397.513C951.571 396.511 952.296 395.094 952.296 393.28V389.497H944.37C942.176 389.497 940.605 389.86 939.673 390.585" fill="#010101"/>
        <path d="M973.951 372.168V363.477H983.483V372.168H991.461V379.182H983.483V393.764C983.483 395.215 983.829 396.269 984.502 396.926C985.176 397.582 986.177 397.911 987.472 397.911H991.479L990.702 404.925H986.281C978.061 404.925 973.951 401.021 973.951 393.211V379.182H968.062V372.168H973.951Z" fill="#010101"/>
        <path d="M1009.97 366.138H1000.44V357.862H1009.97V366.138ZM1009.97 404.787H1000.44V372.185H1009.97V404.787Z" fill="#010101"/>
        <path d="M1023.46 375.502C1026.57 372.807 1031.01 371.459 1036.81 371.459C1042.61 371.459 1047.05 372.807 1050.12 375.502C1053.2 378.18 1054.75 382.067 1054.75 387.112V389.911C1054.75 394.904 1053.21 398.757 1050.12 401.452C1047.03 404.148 1042.61 405.495 1036.81 405.495C1031.01 405.495 1026.57 404.148 1023.46 401.452C1020.35 398.774 1018.8 394.922 1018.8 389.911V387.112C1018.8 382.067 1020.35 378.197 1023.46 375.502ZM1043.15 395.941C1044.53 394.68 1045.22 392.762 1045.22 390.188V386.75C1045.22 384.227 1044.53 382.327 1043.15 381.065C1041.77 379.804 1039.64 379.165 1036.81 379.165C1033.98 379.165 1031.78 379.804 1030.39 381.065C1029 382.327 1028.31 384.227 1028.31 386.75V390.188C1028.31 392.762 1029 394.68 1030.39 395.941C1031.77 397.202 1033.89 397.841 1036.81 397.841C1039.73 397.841 1041.77 397.202 1043.15 395.941Z" fill="#010101"/>
        <path d="M1071.36 372.168L1071.92 375.398C1072.9 374.137 1074.32 373.17 1076.15 372.496C1077.99 371.822 1080.14 371.477 1082.57 371.477C1087.53 371.477 1091.19 372.721 1093.54 375.226C1095.9 377.731 1097.08 381.445 1097.08 386.404V404.77H1087.54V386.11C1087.54 383.501 1087.04 381.618 1086.04 380.513C1085.02 379.39 1083.3 378.837 1080.81 378.837C1075.85 378.837 1073.38 380.875 1073.38 384.935V404.787H1063.85V372.185H1071.36V372.168Z" fill="#010101"/>
        <path d="M1112.27 404.977C1109.49 404.649 1107.02 404.199 1104.88 403.647L1106.21 397.116C1111.5 398.101 1116.05 398.584 1119.87 398.584C1122.39 398.584 1124.14 398.342 1125.1 397.841C1126.05 397.358 1126.55 396.494 1126.55 395.284C1126.55 394.645 1126.36 394.127 1126 393.781C1125.62 393.436 1124.9 393.107 1123.83 392.831C1122.75 392.555 1120.99 392.226 1118.56 391.846C1114.86 391.242 1112.05 390.55 1110.11 389.773C1108.18 388.996 1106.82 388.028 1106.04 386.836C1105.26 385.644 1104.88 384.037 1104.88 382.033C1104.88 374.966 1109.94 371.442 1120.1 371.442C1124.4 371.442 1129.28 372.047 1134.74 373.256L1133.34 379.718C1128.44 378.837 1124.26 378.387 1120.8 378.387C1118.37 378.387 1116.69 378.612 1115.76 379.061C1114.83 379.51 1114.36 380.271 1114.36 381.342C1114.36 382.05 1114.55 382.603 1114.88 383.018C1115.23 383.432 1115.93 383.795 1116.99 384.072C1118.04 384.348 1119.66 384.659 1121.86 384.987C1125.69 385.54 1128.59 386.197 1130.58 386.957C1132.56 387.717 1133.96 388.685 1134.77 389.894C1135.59 391.103 1136 392.762 1136 394.87C1136 398.515 1134.76 401.193 1132.29 402.904C1129.82 404.614 1125.88 405.461 1120.51 405.461C1117.8 405.461 1115.05 405.305 1112.27 404.977Z" fill="#010101"/>
        <path d="M573.665 436.007C576.773 433.311 581.211 431.964 587.013 431.964C592.815 431.964 597.253 433.311 600.327 436.007C603.401 438.685 604.955 442.572 604.955 447.617V450.416C604.955 455.409 603.418 459.262 600.327 461.957C597.236 464.652 592.815 466 587.013 466C581.211 466 576.773 464.652 573.665 461.957C570.556 459.279 569.002 455.426 569.002 450.416V447.617C569.002 442.572 570.556 438.702 573.665 436.007ZM593.351 456.446C594.732 455.184 595.423 453.267 595.423 450.692V447.254C595.423 444.732 594.732 442.831 593.351 441.57C591.969 440.309 589.845 439.669 587.013 439.669C584.181 439.669 581.988 440.309 580.606 441.57C579.225 442.831 578.534 444.732 578.534 447.254V450.692C578.534 453.267 579.225 455.184 580.606 456.446C581.988 457.707 584.112 458.346 587.013 458.346C589.914 458.346 591.969 457.707 593.351 456.446Z" fill="#010101"/>
        <path d="M619.495 421.667C621.809 419.472 625.349 418.367 630.115 418.367H635.728L635.02 425.658H631.376C629.235 425.658 627.715 426.072 626.851 426.919C625.988 427.766 625.556 429.269 625.556 431.411V432.741H633.897V439.687H625.556V465.274H616.024V439.687H610.826V432.741H616.024V431.687C616.024 427.195 617.181 423.861 619.495 421.667Z" fill="#010101"/>
        <path d="M669.091 420.06H659.559V465.292H669.091V420.06Z" fill="#010101"/>
        <path d="M679.313 432.672H686.808L687.516 436.94C689.484 433.622 692.489 431.964 696.565 431.964H700.985L700.277 439.946H695.926C693.732 439.946 692.006 440.585 690.728 441.881C689.467 443.159 688.828 444.904 688.828 447.116V465.274H679.296V432.672H679.313Z" fill="#010101"/>
        <path d="M727.321 439.652C726.336 438.927 724.627 438.564 722.209 438.564C720.292 438.564 718.047 438.667 715.492 438.875C712.918 439.082 710.674 439.359 708.774 439.687L708.066 433.519C710.259 433.104 712.729 432.741 715.457 432.43C718.203 432.119 720.689 431.981 722.917 431.981C728.201 431.981 732.069 432.931 734.556 434.815C737.026 436.715 738.269 439.721 738.269 443.833V465.361H730.912L730.204 461.577C728.288 464.514 724.316 466 718.289 466C713.886 466 710.639 465.119 708.515 463.339C706.391 461.56 705.32 458.847 705.32 455.202C705.32 451.556 706.46 448.896 708.722 447.22C710.984 445.544 714.714 444.697 719.895 444.697H728.806V443.781C728.806 441.777 728.322 440.412 727.338 439.687M716.182 451.09C715.25 451.815 714.784 453.059 714.784 454.839C714.784 456.618 715.267 457.724 716.217 458.45C717.167 459.175 718.721 459.538 720.879 459.538C723.314 459.538 725.231 459.037 726.664 458.035C728.08 457.033 728.806 455.616 728.806 453.802V450.019H720.879C718.686 450.019 717.115 450.381 716.182 451.107" fill="#010101"/>
        <path d="M755.762 432.672L756.314 435.903C757.299 434.642 758.715 433.674 760.545 433.001C762.393 432.327 764.534 431.981 766.969 431.981C771.925 431.981 775.586 433.225 777.935 435.73C780.301 438.236 781.475 441.95 781.475 446.909V465.274H771.943V446.615C771.943 444.006 771.442 442.123 770.44 441.017C769.421 439.894 767.694 439.341 765.208 439.341C760.252 439.341 757.782 441.38 757.782 445.44V465.292H748.25V432.69H755.762V432.672Z" fill="#010101"/>
    </g>
    <defs>
        <clipPath id="clip0_253_401">
            <rect width="1136" height="466" fill="white"/>
        </clipPath>
    </defs>
</svg>
